P2
4 4
65536
5461 10922 16384 21845 
5461 10922 16384 21845 
5461 10922 16384 21845 
16384 32768 49152 65536 
